<svg width="1912" height="346" viewBox="0 0 1912 346" fill="none" xmlns="http://www.w3.org/2000/svg">
<path opacity="0.025" d="M11.16 341C3.96 341 0.12 334.76 3 328.52L152.28 5.47997C153.72 2.59998 156.12 0.199982 160.44 0.199982H165.24C170.04 0.199982 171.96 2.59998 173.4 5.47997L321.24 328.52C324.12 334.76 320.28 341 313.08 341H271.32C264.12 341 260.76 338.12 257.4 331.4L233.88 279.56H90.36L66.84 331.4C64.92 336.2 60.6 341 52.92 341H11.16ZM113.88 226.28H210.36L162.36 120.68H160.92L113.88 226.28ZM347.738 331.88V14.12C347.738 9.31998 352.058 4.99998 356.858 4.99998H397.658C402.458 4.99998 406.778 9.31998 406.778 14.12V152.84C415.418 149.48 430.298 144.2 449.498 144.2C506.618 144.2 544.538 188.84 544.538 245C544.538 300.2 504.698 345.8 452.378 345.8C412.058 345.8 389.497 317 389.497 317L384.698 331.88C383.258 337.16 379.898 341 375.578 341H356.858C352.058 341 347.738 336.68 347.738 331.88ZM404.858 262.76C408.218 274.28 419.738 293.96 445.178 293.96C470.618 293.96 488.858 271.88 488.858 245C488.858 218.12 469.178 196.04 442.297 196.04C418.298 196.04 404.858 207.08 404.858 207.08V262.76ZM572.858 244.52C572.858 190.28 617.018 144.2 671.258 144.2C725.498 144.2 769.658 190.28 769.658 244.52C769.658 299.72 725.498 345.8 671.258 345.8C617.018 345.8 572.858 299.72 572.858 244.52ZM625.178 244.52C625.178 271.88 645.338 293.96 671.258 293.96C696.698 293.96 717.338 271.88 717.338 244.52C717.338 217.64 696.698 196.04 671.258 196.04C645.338 196.04 625.178 217.64 625.178 244.52ZM808.909 251.24V158.12C808.909 152.84 813.229 149 818.029 149H857.389C862.189 149 866.509 152.84 866.509 158.12V252.68C866.509 278.12 879.469 293.96 901.549 293.96C921.709 293.96 937.069 275.24 939.949 257.96V158.12C939.949 150.92 942.829 149 950.509 149H986.989C991.789 149 996.109 152.84 996.109 158.12V331.88C996.109 336.68 991.789 341 986.989 341H969.229C964.429 341 961.549 337.64 960.109 333.8L954.349 317.96C945.709 325.64 927.949 345.8 890.029 345.8C830.509 345.8 808.909 300.2 808.909 251.24ZM1063.76 283.88V199.4H1047.44C1042.64 199.4 1038.8 195.08 1038.8 190.28V158.12C1038.8 152.84 1042.64 149 1047.44 149H1063.76V95.72C1063.76 90.92 1068.08 86.6 1072.88 86.6L1112.24 86.12C1117.04 86.12 1120.88 90.44 1120.88 95.24V149H1163.12C1168.4 149 1172.24 152.84 1172.24 158.12V190.28C1172.24 195.08 1168.4 199.4 1163.12 199.4H1120.88V276.2C1120.88 289.64 1128.08 291.56 1135.76 291.56C1143.92 291.56 1154 288.2 1159.28 286.28C1164.56 284.36 1168.4 286.76 1169.84 291.56L1179.44 321.8C1181.36 326.6 1178.96 331.4 1174.16 333.32C1171.76 334.76 1140.56 345.8 1117.04 345.8C1080.08 345.8 1063.76 322.76 1063.76 283.88ZM1317.88 329.96L1375 7.39997C1375.48 3.56 1378.36 0.199982 1383.64 0.199982H1391.32C1395.16 0.199982 1398.04 2.11999 1399.48 4.99998L1505.08 231.56C1506.04 231.56 1506.04 231.56 1506.52 231.56L1612.12 4.99998C1613.56 2.11999 1615.96 0.199982 1620.28 0.199982H1627.96C1633.24 0.199982 1636.12 3.56 1636.6 7.39997L1693.24 329.96C1694.68 336.68 1690.84 341 1684.6 341H1640.92C1636.6 341 1632.76 337.16 1631.8 333.8L1603.48 151.88C1603 151.88 1602.04 151.88 1602.04 151.88L1518.04 340.52C1517.08 343.4 1514.2 345.8 1509.88 345.8H1501.24C1496.92 345.8 1494.52 343.4 1493.08 340.52L1408.12 151.88C1408.12 151.88 1407.16 151.88 1406.68 151.88L1378.84 333.8C1378.36 337.16 1374.52 341 1370.2 341H1327C1320.76 341 1316.92 336.68 1317.88 329.96ZM1723.65 245C1723.65 190.76 1764.45 144.2 1821.57 144.2C1871.01 144.2 1911.33 181.64 1911.33 233.48C1911.33 236.84 1910.85 243.08 1910.37 246.44C1909.89 251.24 1905.57 254.6 1901.25 254.6H1778.37C1779.81 274.28 1796.61 296.36 1824.45 296.36C1839.33 296.36 1853.25 290.6 1861.89 284.36C1866.69 281.48 1871.01 280.52 1874.37 284.36L1894.05 306.92C1897.41 310.28 1898.37 315.56 1893.57 319.4C1877.73 334.28 1853.25 345.8 1822.05 345.8C1764.45 345.8 1723.65 300.2 1723.65 245ZM1782.69 221H1855.17C1853.73 203.24 1838.37 188.36 1820.13 188.36C1800.93 188.36 1785.09 202.76 1782.69 221Z" fill="#EBEBEB"/>
</svg>
