<svg width="2052" height="480" viewBox="0 0 2052 480" fill="none" xmlns="http://www.w3.org/2000/svg">
<path opacity="0.025" d="M0.680003 326.88V9.11997C0.680003 4.31998 4.52 -2.28882e-05 9.8 -2.28882e-05H205.16C210.44 -2.28882e-05 214.28 4.31998 214.28 9.11997V48.48C214.28 53.28 210.44 57.6 205.16 57.6H63.08V136.32H181.64C186.44 136.32 190.76 140.64 190.76 145.44V185.28C190.76 190.56 186.44 194.4 181.64 194.4H63.08V278.4H205.16C210.44 278.4 214.28 282.72 214.28 287.52V326.88C214.28 331.68 210.44 336 205.16 336H9.8C4.52 336 0.680003 331.68 0.680003 326.88ZM250.374 336C242.214 336 240.294 328.32 244.614 322.08L307.014 238.08L246.534 157.92C241.734 151.68 245.574 144 253.734 144H293.574C299.814 144 305.094 144.48 309.414 150.72L340.614 195.84H341.094L372.774 150.72C376.614 145.44 380.454 144 387.174 144H430.374C438.534 144 440.934 151.68 436.134 157.92L375.654 237.6L436.614 322.08C440.934 328.32 438.534 336 430.854 336H388.614C382.374 336 378.534 333.12 375.174 328.32L341.094 280.32H340.614L304.134 332.16C302.694 334.08 298.854 336 296.454 336H250.374ZM537.496 330.24V470.88C537.496 476.64 534.616 480 525.976 480H487.576C482.776 480 478.456 475.68 478.456 470.88V153.12C478.456 147.84 482.776 144 487.576 144H506.296C509.656 144 513.016 145.92 514.456 149.76L520.696 165.6C527.896 156 551.416 139.2 582.616 139.2C635.416 139.2 675.256 184.8 675.256 240C675.256 296.64 632.056 340.8 580.216 340.8C561.496 340.8 544.216 334.08 537.496 330.24ZM535.096 277.92C535.096 277.92 548.536 288.96 572.536 288.96C599.416 288.96 619.096 266.88 619.096 240C619.096 213.12 600.856 191.04 574.456 191.04C549.976 191.04 537.976 210.24 535.096 220.32V277.92ZM704.056 240C704.056 185.76 744.856 139.2 801.976 139.2C851.416 139.2 891.736 176.64 891.736 228.48C891.736 231.84 891.256 238.08 890.776 241.44C890.296 246.24 885.976 249.6 881.656 249.6H758.776C760.216 269.28 777.016 291.36 804.856 291.36C819.736 291.36 833.656 285.6 842.296 279.36C847.096 276.48 851.416 275.52 854.776 279.36L874.456 301.92C877.816 305.28 878.776 310.56 873.976 314.4C858.136 329.28 833.656 340.8 802.456 340.8C744.856 340.8 704.056 295.2 704.056 240ZM763.096 216H835.576C834.136 198.24 818.776 183.36 800.536 183.36C781.336 183.36 765.496 197.76 763.096 216ZM932.206 326.88V153.12C932.206 147.84 936.526 144 941.326 144H959.566C963.886 144 966.766 146.4 968.206 150.24L974.926 168.96C981.646 159.36 999.406 139.2 1029.17 139.2C1051.73 139.2 1071.89 146.4 1066.13 158.4L1048.37 189.6C1045.97 193.92 1041.17 195.84 1037.33 193.92C1035.89 193.44 1028.69 191.04 1023.41 191.04C1004.21 191.04 992.686 204 989.326 210.72V326.88C989.326 333.6 985.006 336 978.286 336H941.326C936.526 336 932.206 331.68 932.206 326.88ZM1124.12 75.84C1105.88 75.84 1091.48 60.96 1091.48 42.72C1091.48 24.48 1105.88 9.6 1124.12 9.6C1142.84 9.6 1157.72 24.48 1157.72 42.72C1157.72 60.96 1142.84 75.84 1124.12 75.84ZM1095.8 326.88V153.12C1095.8 147.84 1100.12 144 1104.92 144H1144.76C1149.56 144 1153.88 147.84 1153.88 153.12V326.88C1153.88 331.68 1149.56 336 1144.76 336H1104.92C1100.12 336 1095.8 331.68 1095.8 326.88ZM1197.18 240C1197.18 185.76 1237.98 139.2 1295.1 139.2C1344.54 139.2 1384.86 176.64 1384.86 228.48C1384.86 231.84 1384.38 238.08 1383.9 241.44C1383.42 246.24 1379.1 249.6 1374.78 249.6H1251.9C1253.34 269.28 1270.14 291.36 1297.98 291.36C1312.86 291.36 1326.78 285.6 1335.42 279.36C1340.22 276.48 1344.54 275.52 1347.9 279.36L1367.58 301.92C1370.94 305.28 1371.9 310.56 1367.1 314.4C1351.26 329.28 1326.78 340.8 1295.58 340.8C1237.98 340.8 1197.18 295.2 1197.18 240ZM1256.22 216H1328.7C1327.26 198.24 1311.9 183.36 1293.66 183.36C1274.46 183.36 1258.62 197.76 1256.22 216ZM1425.33 326.88V153.12C1425.33 147.84 1429.65 144 1434.45 144H1452.69C1457.01 144 1459.41 146.4 1460.85 149.76L1467.57 167.52C1474.77 159.84 1498.29 139.2 1535.25 139.2C1596.21 139.2 1620.69 184.8 1620.69 234.72V326.88C1620.69 331.68 1616.37 336 1611.57 336H1572.21C1566.93 336 1563.09 331.68 1563.09 326.88V231.84C1563.09 206.88 1550.13 191.04 1527.09 191.04C1502.13 191.04 1486.77 208.32 1481.97 221.28V326.88C1481.97 333.6 1479.09 336 1469.97 336H1434.45C1429.65 336 1425.33 331.68 1425.33 326.88ZM1659.36 240C1659.36 183.36 1707.84 139.2 1761.6 139.2C1791.36 139.2 1814.4 151.2 1832.64 173.28C1836 177.6 1835.04 183.36 1830.24 186.72L1808.16 207.84C1803.84 211.68 1799.52 209.28 1796.16 206.4C1788.48 197.76 1776.48 191.04 1763.04 191.04C1737.12 191.04 1716 213.12 1716 240C1716 267.36 1736.64 288.96 1762.56 288.96C1783.2 288.96 1792.32 278.88 1800.96 270.72C1804.32 267.36 1809.12 266.4 1812.96 269.28L1833.6 287.04C1838.4 290.88 1840.32 295.68 1836.96 300.48C1820.64 325.92 1795.2 340.8 1761.12 340.8C1706.88 340.8 1659.36 297.6 1659.36 240ZM1864.21 240C1864.21 185.76 1905.01 139.2 1962.13 139.2C2011.57 139.2 2051.89 176.64 2051.89 228.48C2051.89 231.84 2051.41 238.08 2050.93 241.44C2050.45 246.24 2046.13 249.6 2041.81 249.6H1918.93C1920.37 269.28 1937.17 291.36 1965.01 291.36C1979.89 291.36 1993.81 285.6 2002.45 279.36C2007.25 276.48 2011.57 275.52 2014.93 279.36L2034.61 301.92C2037.97 305.28 2038.93 310.56 2034.13 314.4C2018.29 329.28 1993.81 340.8 1962.61 340.8C1905.01 340.8 1864.21 295.2 1864.21 240ZM1923.25 216H1995.73C1994.29 198.24 1978.93 183.36 1960.69 183.36C1941.49 183.36 1925.65 197.76 1923.25 216Z" fill="#EBEBEB"/>
</svg>
