<svg width="1920" height="1080" viewBox="0 0 1920 1080" fill="none" xmlns="http://www.w3.org/2000/svg">
<path fill-rule="evenodd" clip-rule="evenodd" d="M766.443 -115.102C753.193 -113.606 729.593 -103.352 711.185 -91.0967C681.339 -71.2224 648.006 -37.4944 612.386 8.87609C571.9 61.579 504.428 166.992 440.099 278.04C431.671 292.588 422.065 309.149 418.753 314.842C397.491 351.387 376.974 388.5 349.136 440.774C344.251 449.946 333.903 469.353 326.139 483.901C318.375 498.45 307.118 519.668 301.124 531.054C289.995 552.191 287.421 556.196 285.663 555.11C284.324 554.283 284.44 543.145 285.884 533.929C286.528 529.818 287.535 521.796 288.123 516.103C290.753 490.613 294.761 464.991 298.568 439.624C311.803 351.301 320.653 262.114 330.138 173.384C334.469 132.842 338.76 91.1832 338.769 50.3244C338.774 27.224 337.252 -0.335115 318.608 -16.7277C288.615 -43.1022 234.345 -31.3163 177.605 13.8938C164.673 24.1984 129.964 58.6417 117.711 73.3281C60.97 141.344 6.03709 237.269 -55.8306 376.37C-78.0879 426.413 -106.376 499.083 -125.893 556.356C-141.189 601.244 -154.548 648.441 -155.841 662.162L-156.491 669.062L-153.498 671.842C-147.551 677.364 -141.199 675.04 -132.711 664.236C-118.394 646.013 -86.3972 583.765 -60.7059 524.154C-48.6851 496.261 -32.855 460.724 -16.6496 425.248C5.96687 375.738 45.2596 297.819 69.1826 255.038C112.867 176.917 140.612 137.022 174.593 103.469C194.517 83.7959 221.526 63.8711 226.82 64.9418L228.833 65.3489L228.735 70.1734C228.627 75.5707 227.559 80.6367 221.285 105.53C213.361 136.963 204.21 167.773 194.302 196.385C174.757 252.823 155.211 304.283 122.008 386.721C104.174 430.996 95.7926 451.338 72.2483 507.478C62.9961 529.537 46.2634 568.18 37.39 587.982C32.9959 597.787 25.9401 613.571 21.7095 623.059C12.554 643.59 -29.4682 728.611 -38.5442 744.966C-42.0542 751.292 -49.8605 765.265 -55.8893 776.018C-125.107 899.457 -191.357 964.874 -265.031 982.532L-274.241 984.739L-303.021 984.716L-311.394 982.542C-338.393 975.537 -360.068 955.955 -370.386 929.247C-374.863 917.657 -378.423 899.75 -378.431 888.776C-378.438 877.3 -379.804 872.192 -383.885 868.374C-388.138 864.397 -391.208 863.632 -396.847 865.149C-411.239 869.02 -423.321 896.464 -423.321 925.284C-423.32 960.086 -410.191 992.047 -385.547 1017.25C-365.814 1037.42 -342.641 1049.76 -312.459 1056.15L-300.718 1058.64C-283.137 1058.72 -265.139 1059.81 -247.739 1056.89C-196.795 1048.33 -147.404 1020.95 -104.857 977.669C-66.7025 938.861 -32.1021 886.137 8.82529 804.441C34.7284 752.733 64.8944 683.603 91.2385 615.584C94.3006 607.677 101.817 588.27 107.94 572.456C119.233 543.293 151.185 458.654 164.38 422.948C173.204 399.07 182.411 373.81 203.576 315.417C207.13 305.613 212.835 289.435 216.253 279.465C223.242 259.084 226.922 250.789 229.303 250.052L230.924 249.55L230.067 259.77C229.595 265.39 228.78 274.647 228.256 280.34C227.731 286.033 226.717 297.142 226.003 305.027C222.485 343.833 216.244 382.43 212.128 421.223C203.117 506.315 188.255 590.621 179.375 675.675C178.401 685.004 176.83 700.014 175.883 709.027C170.06 764.415 170.792 788.755 178.768 804.958C184.794 817.202 196.466 824.741 211.006 825.78C221.012 826.496 225.825 824.816 231.547 818.615C237.628 812.024 240.585 805.968 247.845 785.219C266.727 731.266 298.199 661.283 362.662 529.904C389.228 475.761 401.376 452.409 407.832 443.074C413.679 434.619 431.623 403.212 447.584 373.495C465.005 341.064 512.735 261.448 544.622 211.63C583.207 151.352 636.352 77.3533 641.06 77.3533H642.669L639.89 84.5412C638.363 88.4951 632.356 102.597 626.543 115.88C620.73 129.164 613.74 145.207 611.009 151.532C608.279 157.858 601.56 173.384 596.08 186.034C590.601 198.685 580.666 221.974 574.004 237.787C567.342 253.601 559.143 273.008 555.784 280.915C542.725 311.656 513.112 386.582 491.24 444.224C480.973 471.283 460.952 527.359 444.635 574.757C436.035 599.738 426.538 631.942 419.368 660.436C407.237 708.647 403.084 729.798 397.352 772.568C395.473 786.589 395.494 836.931 397.385 847.322C403.127 878.899 412.907 901.717 428.93 920.916C446.262 941.683 467.705 955.25 496.328 963.559C522.702 971.216 556.096 966.721 579.883 953.923C588.763 949.145 600.454 937.494 604.834 929.055L608.631 921.738L607.265 918.745L605.9 915.751H599.824C596.482 915.751 591.938 916.289 589.726 916.946C583.134 918.906 564.627 918.694 557.765 916.58C530.096 908.058 513.877 884.176 507.995 843.297C506.394 832.176 507.011 790.617 509.027 773.718C511.106 756.286 516.038 728.558 520.071 711.614C533.738 654.202 547.865 606.266 575.317 524.154C590.476 478.81 600.67 449.531 605.547 437.324C607.442 432.58 609.643 426.628 610.437 424.098C617.676 401.048 667.428 273.493 694.769 207.886C701.096 192.705 708.86 174.074 712.023 166.483C720.865 145.266 766.685 41.1803 778.841 14.6747C787.97 -5.20061 801.036 -35.2714 804.582 -44.5535C809.325 -56.9489 814.218 -77.3776 814.172 -84.5045C814.079 -96.6952 808.588 -106.643 799.125 -111.789L793.346 -114.933L782.203 -115.277C776.067 -115.467 768.976 -115.388 766.443 -115.102ZM1934.91 234.701C1905.17 241.079 1873.12 244.117 1835.33 244.139C1799.72 244.159 1779.69 245.799 1765.11 249.887C1739.14 257.165 1717.42 274.396 1703.13 299.072C1697.51 308.763 1694.31 317.387 1690.76 332.371C1687.14 347.727 1684.62 370.121 1689.85 385.394C1694.65 402.085 1703.43 410.158 1713.68 407.329C1720.64 405.412 1722.78 401.431 1728.93 379.044C1735.5 355.094 1743.2 343.705 1757.64 336.624L1764.53 333.243L1828.62 333.441C1894.43 333.644 1897.53 333.858 1897.46 338.171C1897.45 339.255 1892.4 346.396 1886.24 354.039C1857.77 389.38 1858.65 388.313 1835.85 414.705C1811.58 442.772 1802.82 452.727 1788.71 468.232C1781.11 476.581 1771.47 487.257 1767.29 491.958C1758.34 502.04 1733.94 528.721 1712.15 552.27C1703.6 561.509 1687.8 578.59 1677.04 590.228C1666.28 601.868 1651.55 617.639 1644.31 625.275C1629.74 640.663 1614.95 658.687 1610.08 666.995C1601.42 681.754 1597.18 704.198 1600.47 717.91L1601.94 723.991L1606.39 728.441C1609.05 731.095 1611.94 732.891 1613.56 732.891C1616.56 732.891 1626.13 729.06 1643.33 720.994C1690.08 699.071 1738.02 685.793 1770.56 685.755C1815.81 685.705 1848.01 717.804 1847.99 765.481C1847.98 778.316 1846.49 793.184 1843.85 806.495C1838.39 833.97 1819.11 887.429 1813.57 890.386C1810.72 891.914 1801.06 891.949 1786.98 890.484C1742.67 885.873 1646.06 884.348 1595.88 887.467C1447.58 896.686 1300.52 912.943 1154.4 941.031C1093 952.831 1031.63 965.31 970.781 979.675C875.507 1002.16 779.877 1023.35 685.283 1048.61C679.268 1050.21 668.908 1052.8 662.259 1054.36C655.611 1055.92 642.401 1059.28 632.904 1061.81C528.619 1089.68 471.157 1102.72 435.113 1106.68C416.099 1108.79 413.746 1113.48 425.453 1125.94C440.619 1142.08 463.971 1152.04 501.949 1158.56L516.633 1161.09C586.834 1161.06 647.813 1156.06 716.366 1137.54C734.635 1132.61 735.453 1132.35 772.199 1120.64C786.128 1116.2 801.67 1111.26 806.735 1109.69C811.8 1108.1 823.462 1104.4 832.637 1101.44C841.812 1098.48 851.666 1095.41 854.51 1094.61C857.353 1093.79 871.34 1089.5 885.592 1085.06C940.953 1067.79 1001.94 1050.63 1070.68 1032.97C1102.29 1024.85 1104.79 1024.22 1115.83 1021.65C1125.23 1019.46 1144.63 1014.87 1165.33 1009.95C1242.23 991.656 1320.35 977.376 1398.45 965.264C1474.88 953.408 1551.97 943.638 1629.27 939.939C1640.99 939.379 1660.66 938.306 1673.01 937.556C1686.38 936.744 1712 936.389 1736.33 936.679L1777.2 937.165L1779.79 938.574C1781.21 939.349 1782.38 940.864 1782.38 941.94C1782.38 947.278 1755.71 985.524 1732.3 1013.79C1659.59 1101.54 1561.14 1179.23 1449.68 1236.81C1398.61 1263.21 1338.29 1286.37 1285.63 1299.83C1255.87 1307.43 1250.97 1308.52 1226.35 1313.06C1210.11 1316.07 1175.89 1320.77 1163.03 1321.77C1156.38 1322.29 1147.32 1323.25 1142.88 1323.92C1132.97 1325.4 1055.09 1325.48 1047.91 1324.01C1045.07 1323.43 1035.52 1322.41 1026.72 1321.75L1010.7 1320.55L1008.01 1322.31C1000.45 1327.27 1009.75 1336.55 1029.86 1344.12C1077.04 1361.85 1165.19 1366.83 1244.77 1356.24C1271.84 1352.63 1301.65 1347.69 1314.41 1344.7C1360.15 1334 1383.06 1327.64 1414.57 1316.88C1438.34 1308.77 1480.43 1291.43 1503.21 1280.34C1515.24 1274.5 1528.28 1268.22 1532.2 1266.42C1536.11 1264.6 1547.77 1258.39 1558.1 1252.61C1609.96 1223.59 1636.78 1205.89 1685.2 1168.77C1732.49 1132.5 1791.93 1072.38 1826.9 1025.4C1839.14 1008.97 1860.67 977.042 1869.22 962.656C1872.87 956.511 1876.82 951.179 1877.99 950.806C1880.45 950.029 1881.75 950.221 1914.19 956.155C1921.2 957.439 1945.41 963.086 1952.75 965.154C1954.96 965.778 1964.3 968.37 1973.47 970.915C1982.65 973.46 1999.92 978.909 2011.82 983.024C2023.74 987.139 2034.78 990.505 2036.38 990.505C2038.03 990.505 2040.69 989.078 2042.64 987.144L2046 983.782V979.894C2046 975.334 2041.29 967.406 2034.66 960.774C2021.51 947.64 1994.83 933.375 1963.69 922.826C1953.48 919.368 1922.63 910.897 1914.76 909.395C1909.24 908.339 1905.55 905.798 1905.55 903.04C1905.55 901.772 1907.1 897.675 1908.98 893.936C1919.86 872.406 1934.52 828.432 1939.07 803.689C1944.79 772.556 1949.16 737.483 1941.37 706.561C1937.13 689.773 1932.7 678.806 1925.22 666.676C1912.52 646.092 1894.3 629.38 1873.9 619.618C1862.64 614.228 1858.79 612.964 1845.69 610.344C1823.89 605.983 1804.13 607.183 1767.99 615.061C1760.31 616.735 1748.05 617.836 1745.83 617.051C1741.81 615.629 1745.23 611.229 1780.07 573.045C1790.04 562.12 1801.49 549.671 1838.24 509.739C1892.41 450.914 1907.82 433.718 1943.8 392.03C1965.82 366.514 1966.67 365.494 1988.64 338.811C1997.93 327.526 2010.01 312.858 2015.5 306.216C2030.22 288.439 2030.57 287.121 2025.91 268.254C2020.74 247.425 2012.91 235.82 1999.48 229.11L1992.68 225.712H1983.85C1967.53 225.712 1950.85 231.284 1934.91 234.701ZM1548.3 270.595C1540.87 271.873 1531.11 277.896 1525.07 284.94C1522.37 288.103 1517.46 295.736 1514.17 301.904L1508.18 313.117H1505.79C1504.28 313.117 1500.46 309.946 1495.51 304.574C1484.99 293.168 1475.64 286.281 1461.77 279.727C1404.77 252.796 1342.73 289.854 1298.45 325.031C1283.63 336.801 1251.47 368.934 1238.42 384.996C1201.73 430.196 1172.72 479.447 1152.06 531.629C1143.37 553.569 1141.3 559.701 1132.4 589.707L1124.89 615.009L1120.08 622.468C1111.63 635.548 1088.06 667.335 1073.43 685.411C1056.49 706.319 1043.63 718.749 1033.91 723.6L1026.82 727.14C1010.07 727.14 1003.07 719.024 1003.05 701.839C1003.04 691.342 1007.5 667.394 1012.66 650.415C1024.5 611.43 1047.25 552.065 1076.7 483.326C1086.33 460.871 1097.19 435.254 1100.88 426.398C1104.55 417.543 1112.85 398.912 1119.33 384.996C1135.99 349.22 1136.5 347.935 1136.53 340.784L1136.55 334.523L1130.49 328.648L1124.41 322.773L1116 320.071L1107.59 317.368L1094.53 317.498L1081.49 317.627L1074.77 319.889C1060.17 324.808 1050.89 331.934 1041.33 345.586C1037.8 350.609 1034.23 354.981 1033.39 355.302C1032.51 355.64 1026.42 350.379 1018.88 342.77L1005.89 329.655C962.331 307.972 923.858 313.519 878.869 336.277C822.783 364.643 771.151 412.931 725.338 479.876C689.102 532.823 656.743 604.825 642.871 663.375C633.537 702.768 632.322 711.431 632.354 738.375L632.378 759.917L634.558 769.766C644.783 815.948 677.07 844.207 722.147 846.425L734.255 847.021L743.442 845.032C775.376 838.118 799.114 824 832.43 792.113C846.808 778.348 869.797 752.702 887.733 730.421C894.537 721.975 900.822 715.065 901.709 715.065H903.32C903.32 715.065 903.539 720.815 903.32 736.916C903.113 753.017 906.716 764.517 906.716 764.517C918.505 801.057 949.46 817.88 987.277 808.299C1025.05 798.725 1064.06 766.83 1103.95 712.898C1108.69 706.499 1113.43 700.599 1114.47 699.787L1116.38 698.309L1117.83 700.294C1118.63 701.386 1119.29 704.183 1119.29 706.509C1119.29 711.894 1125.39 732.512 1129.27 740.222C1143.59 768.712 1173.36 786.944 1205.57 786.944C1254.61 786.944 1307.01 750.867 1364.28 677.687C1378.57 659.429 1380.64 656.986 1381.83 656.986C1382.47 656.986 1382.91 666.311 1382.91 679.916C1382.91 701.358 1383.78 718.55 1396.51 737.117C1402.51 745.886 1407.4 750.409 1415.14 754.375C1431.84 762.923 1448.1 759.717 1463.49 754.928C1485.96 747.935 1511.51 730.303 1534.2 706.137C1555.41 683.54 1581.08 648.634 1591.54 628.163L1597.42 616.641L1597.94 610.412L1598.46 604.183L1594.96 600.682C1593.03 598.757 1590.68 597.183 1589.72 597.183C1587.29 597.183 1581.51 602.282 1574.68 610.466C1540.26 651.68 1524.66 667.901 1512.26 675.387L1505.6 679.413C1505.6 679.413 1501.48 681.713 1497.45 681.713C1492.27 681.713 1489.6 679.218 1486.48 675.72C1481.46 670.108 1480.16 664.101 1480.34 647.211C1480.57 623.843 1484.72 603.678 1498.75 557.793C1507.55 529.052 1530.42 466.216 1544.71 431.573C1546.4 427.462 1550.56 416.853 1553.93 407.997C1567.23 373.157 1576.53 350.749 1586.05 330.595C1592.5 316.954 1596.24 307.577 1596.66 303.952L1597.33 298.357L1594.72 292.965C1590.79 284.856 1584.69 279.189 1575.1 274.737C1565.7 270.37 1557.22 269.062 1548.3 270.595ZM1415.14 333.071C1383.5 342.528 1350.05 372.289 1313.58 423.418C1288.67 458.357 1256.93 521.714 1240.96 568.431C1229.56 601.723 1221.74 639.596 1221.74 661.445C1221.74 680.657 1226.22 694.877 1235.06 703.711L1239.88 708.517L1246.4 709.871C1263.24 713.364 1278.4 705.179 1305.86 677.762C1326.18 657.487 1343.91 635.603 1361.84 608.683C1404.03 545.376 1440.42 462.561 1458.27 389.215C1459.36 384.734 1460.04 376.638 1460.04 368.155V354.376L1457.09 348.153C1453.49 340.543 1447 334.789 1439.18 332.266C1431.4 329.757 1425.58 329.951 1415.14 333.071ZM948.217 369.507C928.992 373.313 904.23 388.344 885.327 407.685C856.259 437.41 827.733 478.933 801.762 529.329C773.903 583.349 753.803 637.977 746.953 678.262C745.882 684.588 744.513 691.933 743.925 694.585C743.327 697.237 742.843 706.474 742.843 715.109V730.811L744.72 737.314C748.749 751.308 755.127 759.725 764.497 763.434L769.459 765.4L776.297 764.78C784.413 764.045 795.891 758.981 804.997 752.123C812.802 746.232 833.443 725.516 845.358 711.614C871.973 680.532 904.817 631.107 927.116 588.557C950.186 544.55 979.794 467.217 989.43 425.823C990.236 422.344 990.903 413.029 990.915 405.122L990.927 390.746L987.738 384.704C980.796 371.54 966.233 365.939 948.217 369.507Z" fill="#EBEBEB"/>
</svg>
