<svg width="2190" height="1319" viewBox="0 0 2190 1319" fill="none" xmlns="http://www.w3.org/2000/svg">
<path fill-rule="evenodd" clip-rule="evenodd" d="M1069.76 24.8387C1058.16 26.1498 1037.5 35.1352 1021.39 45.8741C995.259 63.2896 966.079 92.8448 934.896 133.478C899.454 179.661 840.387 272.032 784.073 369.342C776.695 382.09 768.286 396.602 765.386 401.591C746.773 433.615 728.812 466.136 704.442 511.943C700.166 519.98 691.107 536.986 684.31 549.735C677.513 562.483 667.659 581.077 662.411 591.054C652.669 609.576 650.416 613.085 648.877 612.134C647.705 611.409 647.805 601.649 649.07 593.573C649.633 589.971 650.515 582.941 651.03 577.953C653.332 555.616 656.841 533.164 660.174 510.935C671.76 433.54 679.507 355.386 687.81 277.634C691.603 242.108 695.359 205.603 695.367 169.799C695.37 149.556 694.038 125.407 677.717 111.042C651.461 87.9309 603.952 98.2586 554.28 137.875C542.96 146.905 512.574 177.087 501.848 189.957C452.176 249.558 404.086 333.615 349.926 455.507C330.442 499.359 305.677 563.039 288.593 613.225C275.202 652.56 263.507 693.918 262.375 705.941L261.806 711.988L264.426 714.424C269.632 719.263 275.193 717.226 282.623 707.759C295.157 691.791 323.167 637.244 345.658 585.007C356.181 560.565 370.039 529.425 384.226 498.338C404.025 454.953 438.422 386.674 459.365 349.186C497.608 280.73 521.896 245.771 551.644 216.369C569.085 199.129 592.73 181.67 597.364 182.608L599.126 182.965L599.041 187.192C598.946 191.922 598.011 196.361 592.518 218.175C585.582 245.719 577.571 272.717 568.897 297.789C551.787 347.245 534.676 392.338 505.609 464.577C489.998 503.375 482.66 521.2 462.049 570.394C453.949 589.725 439.301 623.587 431.533 640.939C427.687 649.53 421.51 663.362 417.806 671.676C409.791 689.667 373.004 764.17 365.059 778.501C361.986 784.044 355.152 796.289 349.875 805.711C289.28 913.879 231.284 971.202 166.788 986.676L158.726 988.61L133.531 988.59L126.201 986.685C102.565 980.547 83.5905 963.387 74.5577 939.983C70.6385 929.827 67.5224 914.136 67.5154 904.519C67.5093 894.463 66.3131 889.987 62.7405 886.641C59.0177 883.157 56.33 882.486 51.3939 883.816C38.7946 887.208 28.2179 911.256 28.2179 936.51C28.2189 967.007 39.7117 995.014 61.2863 1017.09C78.5606 1034.77 98.8463 1045.58 125.268 1051.19L135.547 1053.36C150.938 1053.43 166.693 1054.39 181.926 1051.83C226.523 1044.33 269.761 1020.34 307.008 982.415C340.409 948.408 370.699 902.207 406.527 830.618C429.203 785.307 455.611 724.73 478.673 665.126C481.354 658.197 487.934 641.191 493.294 627.334C503.181 601.779 531.152 527.611 542.703 496.322C550.427 475.399 558.488 453.264 577.016 402.095C580.127 393.503 585.121 379.327 588.113 370.59C594.232 352.732 597.454 345.462 599.538 344.816L600.957 344.377L600.207 353.332C599.794 358.257 599.08 366.369 598.622 371.357C598.162 376.346 597.274 386.081 596.649 392.99C593.57 426.995 588.105 460.817 584.503 494.811C576.614 569.375 563.603 643.251 555.83 717.782C554.978 725.958 553.602 739.11 552.773 747.008C547.675 795.544 548.316 816.873 555.298 831.071C560.574 841.8 570.792 848.406 583.52 849.317C592.28 849.944 596.493 848.473 601.502 843.039C606.826 837.263 609.414 831.956 615.77 813.774C632.3 766.496 659.85 705.171 716.283 590.046C739.54 542.602 750.174 522.139 755.826 513.959C760.944 506.549 776.652 479.028 790.625 452.988C805.876 424.569 847.66 354.803 875.574 311.148C909.352 258.328 955.876 193.484 959.998 193.484H961.407L958.974 199.782C957.637 203.247 952.378 215.605 947.29 227.245C942.201 238.884 936.081 252.943 933.691 258.486C931.301 264.029 925.419 277.634 920.622 288.719C915.825 299.805 907.128 320.212 901.296 334.069C895.464 347.926 888.286 364.933 885.346 371.861C873.913 398.799 847.99 464.455 828.842 514.966C819.855 538.677 802.328 587.816 788.043 629.35C780.515 651.241 772.201 679.461 765.924 704.429C755.304 746.676 751.669 765.21 746.652 802.688C745.006 814.975 745.025 859.089 746.68 868.194C751.707 895.865 760.269 915.859 774.295 932.683C789.468 950.881 808.239 962.769 833.297 970.051C856.385 976.76 885.619 972.821 906.443 961.606C914.217 957.42 924.451 947.21 928.285 939.815L931.609 933.404L930.414 930.78L929.218 928.157H923.899C920.974 928.157 916.996 928.629 915.059 929.204C909.289 930.921 893.087 930.736 887.08 928.884C862.858 921.416 848.659 900.488 843.511 864.667C842.109 854.921 842.649 818.504 844.414 803.696C846.234 788.421 850.551 764.123 854.082 749.276C866.047 698.966 878.413 656.961 902.446 585.007C915.716 545.273 924.64 519.616 928.909 508.92C930.568 504.763 932.495 499.547 933.19 497.33C939.527 477.132 983.081 365.358 1007.02 307.867C1012.55 294.564 1019.35 278.238 1022.12 271.587C1029.86 252.994 1069.97 161.786 1080.61 138.56C1088.61 121.143 1100.04 94.7929 1103.15 86.659C1107.3 75.7972 1111.58 57.8959 1111.54 51.6507C1111.46 40.9682 1106.66 32.2509 1098.37 27.7421L1093.31 24.9868L1083.56 24.6855C1078.19 24.5192 1071.98 24.5878 1069.76 24.8387ZM2092.66 331.365C2066.63 336.954 2038.57 339.616 2005.49 339.635C1974.32 339.653 1956.78 341.09 1944.01 344.672C1921.28 351.05 1902.27 366.149 1889.75 387.772C1884.83 396.264 1882.03 403.821 1878.93 416.951C1875.75 430.407 1873.55 450.031 1878.13 463.414C1882.34 478.04 1890.01 485.115 1898.99 482.636C1905.08 480.956 1906.96 477.468 1912.34 457.85C1918.09 436.863 1924.83 426.883 1937.47 420.678L1943.51 417.715L1999.61 417.889C2057.23 418.067 2059.94 418.255 2059.88 422.034C2059.87 422.984 2055.44 429.241 2050.05 435.939C2025.13 466.907 2025.9 465.972 2005.94 489.1C1984.7 513.694 1977.03 522.417 1964.67 536.004C1958.02 543.32 1949.58 552.676 1945.93 556.794C1938.09 565.63 1916.73 589.009 1897.65 609.645C1890.17 617.741 1876.34 632.709 1866.92 642.907C1857.49 653.107 1844.6 666.927 1838.27 673.618C1825.51 687.103 1812.56 702.897 1808.29 710.177C1800.72 723.11 1797.01 742.777 1799.89 754.792L1801.17 760.121L1805.07 764.021C1807.4 766.346 1809.93 767.92 1811.35 767.92C1813.97 767.92 1822.35 764.563 1837.41 757.495C1878.33 738.284 1920.3 726.649 1948.79 726.616C1988.39 726.571 2016.58 754.7 2016.57 796.478C2016.56 807.725 2015.25 820.754 2012.94 832.418C2008.17 856.494 1991.29 903.339 1986.44 905.93C1983.94 907.269 1975.48 907.3 1963.16 906.016C1924.37 901.976 1839.8 900.64 1795.87 903.373C1666.05 911.451 1537.3 925.696 1409.38 950.309C1355.64 960.65 1301.91 971.584 1248.64 984.173C1165.24 1003.88 1081.52 1022.44 998.712 1044.58C993.446 1045.98 984.376 1048.25 978.556 1049.61C972.736 1050.99 961.172 1053.93 952.858 1056.15C861.565 1080.56 811.262 1091.99 779.708 1095.47C763.062 1097.31 761.003 1101.42 771.252 1112.34C784.528 1126.49 804.971 1135.22 838.218 1140.93L851.072 1143.15C912.528 1143.12 965.91 1138.73 1025.92 1122.51C1041.92 1118.18 1042.63 1117.96 1074.8 1107.69C1086.99 1103.8 1100.6 1099.48 1105.03 1098.1C1109.47 1096.71 1119.68 1093.46 1127.71 1090.87C1135.74 1088.28 1144.37 1085.59 1146.86 1084.89C1149.35 1084.17 1161.59 1080.41 1174.07 1076.52C1222.53 1061.39 1275.92 1046.35 1336.1 1030.87C1363.77 1023.76 1365.96 1023.21 1375.62 1020.95C1383.85 1019.03 1400.84 1015.01 1418.96 1010.7C1486.28 994.672 1554.67 982.158 1623.03 971.544C1689.94 961.155 1757.43 952.594 1825.09 949.353C1835.35 948.862 1852.58 947.922 1863.39 947.265C1875.09 946.553 1897.52 946.242 1918.82 946.496L1954.59 946.922L1956.86 948.156C1958.11 948.836 1959.13 950.163 1959.13 951.106C1959.13 955.783 1935.79 989.298 1915.29 1014.07C1851.64 1090.96 1765.45 1159.04 1667.88 1209.5C1623.17 1232.63 1570.37 1252.92 1524.27 1264.72C1498.22 1271.38 1493.93 1272.33 1472.37 1276.32C1458.16 1278.95 1428.2 1283.07 1416.94 1283.94C1411.12 1284.4 1403.19 1285.24 1399.31 1285.83C1390.63 1287.13 1322.45 1287.2 1316.16 1285.91C1313.67 1285.4 1305.32 1284.51 1297.61 1283.92L1283.59 1282.88L1281.23 1284.42C1274.61 1288.76 1282.76 1296.89 1300.36 1303.53C1341.66 1319.07 1418.84 1323.43 1488.49 1314.15C1512.2 1310.98 1538.29 1306.66 1549.46 1304.04C1589.5 1294.66 1609.56 1289.08 1637.14 1279.66C1657.95 1272.56 1694.8 1257.36 1714.74 1247.64C1725.27 1242.52 1736.69 1237.02 1740.12 1235.44C1743.54 1233.85 1753.75 1228.41 1762.79 1223.34C1808.19 1197.91 1831.67 1182.4 1874.06 1149.87C1915.46 1118.09 1967.49 1065.41 1998.11 1024.24C2008.82 1009.84 2027.67 981.866 2035.16 969.259C2038.35 963.875 2041.81 959.202 2042.83 958.875C2044.98 958.194 2046.12 958.362 2074.52 963.562C2080.66 964.687 2101.85 969.636 2108.28 971.448C2110.22 971.994 2118.39 974.266 2126.42 976.496C2134.45 978.726 2149.57 983.501 2159.99 987.107C2170.42 990.713 2180.08 993.663 2181.49 993.663C2182.94 993.663 2185.26 992.412 2186.97 990.717L2189.91 987.771V984.364C2189.91 980.368 2185.79 973.422 2179.98 967.61C2168.47 956.101 2145.11 943.6 2117.85 934.357C2108.92 931.326 2081.91 923.903 2075.02 922.587C2070.19 921.662 2066.96 919.436 2066.96 917.019C2066.96 915.907 2068.31 912.318 2069.96 909.041C2079.49 890.175 2092.32 851.641 2096.3 829.959C2101.31 802.678 2105.14 771.944 2098.31 744.847C2094.6 730.137 2090.72 720.527 2084.17 709.897C2073.06 691.859 2057.1 677.215 2039.25 668.661C2029.39 663.938 2026.02 662.83 2014.56 660.534C1995.47 656.713 1978.18 657.764 1946.53 664.667C1939.81 666.135 1929.08 667.099 1927.13 666.412C1923.61 665.165 1926.61 661.309 1957.11 627.85C1965.84 618.276 1975.86 607.368 2008.04 572.376C2055.45 520.829 2068.95 505.76 2100.44 469.229C2119.72 446.871 2120.46 445.977 2139.69 422.595C2147.83 412.706 2158.41 399.852 2163.21 394.033C2176.09 378.454 2176.41 377.299 2172.32 360.767C2167.8 342.515 2160.95 332.345 2149.19 326.466L2143.23 323.488H2135.5C2121.22 323.488 2106.62 328.37 2092.66 331.365ZM1754.22 362.818C1747.71 363.938 1739.17 369.216 1733.88 375.389C1731.51 378.16 1727.22 384.849 1724.34 390.253L1719.09 400.079H1717C1715.68 400.079 1712.33 397.301 1708 392.593C1698.79 382.598 1690.6 376.564 1678.46 370.82C1628.57 347.221 1574.26 379.695 1535.49 410.52C1522.52 420.833 1494.36 448.991 1482.94 463.066C1450.82 502.673 1425.43 545.832 1407.34 591.558C1399.73 610.783 1397.91 616.157 1390.12 642.451L1383.55 664.622L1379.34 671.159C1371.94 682.62 1351.31 710.474 1338.51 726.314C1323.67 744.636 1312.41 755.528 1303.91 759.779L1297.7 762.881C1283.04 762.881 1276.91 755.769 1276.89 740.71C1276.88 731.512 1280.79 710.526 1285.31 695.648C1295.67 661.486 1315.59 609.465 1341.37 549.231C1349.79 529.554 1359.31 507.106 1362.53 499.346C1365.75 491.586 1373.01 475.26 1378.69 463.066C1393.27 431.715 1393.71 430.59 1393.74 424.323L1393.76 418.837L1388.45 413.689L1383.13 408.541L1375.77 406.173L1368.41 403.805L1356.98 403.919L1345.56 404.032L1339.67 406.014C1326.9 410.324 1318.77 416.569 1310.4 428.532C1307.32 432.933 1304.19 436.764 1303.46 437.046C1302.68 437.342 1297.35 432.731 1290.75 426.064L1279.38 414.571C1241.24 395.571 1207.56 400.432 1168.18 420.374C1119.08 445.231 1073.88 487.545 1033.78 546.208C1002.05 592.604 973.727 655.698 961.583 707.004C953.412 741.524 952.349 749.115 952.376 772.726L952.397 791.603L954.306 800.233C963.257 840.702 991.521 865.464 1030.98 867.408L1041.58 867.93L1049.63 866.187C1077.58 860.129 1098.36 847.757 1127.53 819.815C1140.11 807.753 1160.24 785.28 1175.94 765.756C1181.9 758.355 1187.4 752.299 1188.18 752.299H1189.59C1189.59 752.299 1189.78 757.338 1189.59 771.447C1189.4 785.556 1192.56 795.634 1192.56 795.634C1202.88 827.653 1229.98 842.395 1263.08 833.999C1296.15 825.609 1330.3 797.66 1365.22 750.4C1369.37 744.793 1373.52 739.623 1374.43 738.912L1376.11 737.617L1377.38 739.356C1378.07 740.312 1378.65 742.763 1378.65 744.802C1378.65 749.521 1383.99 767.588 1387.38 774.344C1399.92 799.309 1425.98 815.285 1454.18 815.285C1497.11 815.285 1542.98 783.672 1593.12 719.546C1605.63 703.547 1607.44 701.406 1608.48 701.406C1609.05 701.406 1609.43 709.577 1609.43 721.499C1609.43 740.288 1610.19 755.354 1621.33 771.623C1626.59 779.308 1630.86 783.271 1637.65 786.746C1652.26 794.237 1666.5 791.427 1679.97 787.231C1699.64 781.102 1722.01 765.652 1741.87 744.476C1760.43 724.675 1782.91 694.088 1792.07 676.149L1797.22 666.052L1797.67 660.594L1798.13 655.136L1795.06 652.068C1793.37 650.381 1791.31 649.001 1790.48 649.001C1788.35 649.001 1783.29 653.47 1777.3 660.641C1747.17 696.756 1733.52 710.971 1722.66 717.531L1716.84 721.058C1716.84 721.058 1713.23 723.073 1709.7 723.073C1705.17 723.073 1702.83 720.887 1700.1 717.822C1695.7 712.905 1694.57 707.64 1694.72 692.84C1694.92 672.363 1698.56 654.693 1710.84 614.485C1718.54 589.299 1738.57 534.237 1751.07 503.881C1752.55 500.278 1756.19 490.981 1759.14 483.221C1770.78 452.691 1778.93 433.056 1787.26 415.395C1792.9 403.442 1796.18 395.225 1796.55 392.048L1797.14 387.145L1794.85 382.421C1791.41 375.315 1786.07 370.349 1777.68 366.447C1769.44 362.621 1762.03 361.475 1754.22 362.818ZM1637.65 417.565C1609.94 425.852 1580.67 451.931 1548.74 496.735C1526.93 527.351 1499.15 582.87 1485.16 623.807C1475.18 652.98 1468.34 686.167 1468.34 705.313C1468.34 722.148 1472.26 734.609 1480 742.35L1484.22 746.562L1489.93 747.748C1504.67 750.808 1517.94 743.636 1541.98 719.612C1559.76 701.844 1575.28 682.668 1590.99 659.079C1627.92 603.604 1659.78 531.034 1675.4 466.763C1676.35 462.836 1676.95 455.742 1676.95 448.309V436.234L1674.37 430.781C1671.22 424.113 1665.53 419.07 1658.69 416.86C1651.88 414.661 1646.79 414.831 1637.65 417.565ZM1228.89 449.493C1212.06 452.829 1190.38 465.999 1173.83 482.948C1148.39 508.995 1123.42 545.381 1100.68 589.542C1076.29 636.879 1058.7 684.748 1052.7 720.05C1051.76 725.593 1050.56 732.03 1050.05 734.353C1049.52 736.677 1049.1 744.771 1049.1 752.338V766.098L1050.74 771.796C1054.27 784.058 1059.85 791.434 1068.06 794.684L1072.4 796.407L1078.39 795.863C1085.49 795.219 1095.54 790.782 1103.51 784.773C1110.34 779.611 1128.41 761.458 1138.84 749.276C1162.14 722.038 1190.9 678.729 1210.42 641.443C1230.61 602.88 1256.53 535.115 1264.97 498.842C1265.67 495.793 1266.26 487.63 1266.27 480.702L1266.28 468.104L1263.49 462.81C1257.41 451.275 1244.66 446.367 1228.89 449.493Z" fill="#858585"/>
</svg>
