<svg width="25" height="24" viewBox="0 0 25 24" fill="none" xmlns="http://www.w3.org/2000/svg">
<path d="M12.4941 2C6.9798 2 2.49414 6.48145 2.49414 11.9922C2.49414 16.6046 5.61698 20.4831 9.86133 21.6484L10.4941 21.8223V18V17V16.9922C10.4941 16.4556 10.6993 15.9819 11.0449 15.6152L11.6289 14.998L10.8047 14.7891C8.8115 14.2822 7.49414 12.9532 7.49414 11.5C7.49414 10.7242 7.85664 9.99227 8.51172 9.38867L8.71875 9.19727L8.66406 8.92188C8.56215 8.41359 8.57847 7.87643 8.57031 7.3457C9.10905 7.58287 9.65768 7.79484 10.1406 8.17383L10.3379 8.33008L10.5801 8.26367C11.1758 8.10111 11.8214 8.00195 12.4961 8.00195C13.1687 8.00195 13.8157 8.10121 14.4102 8.26367L14.6523 8.33008L14.8496 8.17383C15.3321 7.79518 15.881 7.58281 16.4199 7.3457C16.4112 7.87705 16.428 8.41366 16.3262 8.92188L16.2715 9.19922L16.4785 9.38867C17.1338 9.99242 17.4961 10.7265 17.4961 11.502C17.4961 12.9538 16.177 14.2812 14.1836 14.7891L13.3633 14.998L13.9434 15.6172C14.2888 15.9845 14.4961 16.4586 14.4961 16.9941L14.4941 21.8223L15.127 21.6484C19.3723 20.4831 22.4941 16.6047 22.4941 11.9922C22.4941 6.48145 18.0085 2 12.4941 2ZM12.4941 3C17.4678 3 21.4941 7.02293 21.4941 11.9922C21.4941 15.905 18.9672 19.141 15.4941 20.3945L15.4961 16.9941C15.4961 16.4166 15.1843 15.9601 14.9004 15.502C16.9275 14.8116 18.4961 13.377 18.4961 11.502C18.4961 10.5041 18.025 9.60206 17.3223 8.87305C17.4587 8.08985 17.5288 7.28886 17.4668 6.46289L17.418 5.82812L16.8125 6.02539C15.981 6.29578 15.1956 6.72654 14.4551 7.26953C13.8395 7.11713 13.1906 7.00195 12.4961 7.00195C11.8004 7.00195 11.1508 7.11741 10.5352 7.26953C9.79493 6.72668 9.01022 6.2958 8.17969 6.02539L7.57422 5.82812L7.52539 6.46289C7.46149 7.28881 7.53183 8.08862 7.66797 8.87109C6.96464 9.60043 6.49414 10.5019 6.49414 11.5C6.49414 13.3757 8.0626 14.8124 10.0898 15.502C9.80657 15.9601 9.49414 16.416 9.49414 16.9922V17H7.99414C7.71829 17 7.49939 16.8511 7.23047 16.5195C6.96154 16.188 6.70262 15.7058 6.42383 15.2422L6.16602 14.8145L5.30859 15.3301L5.56641 15.7578C5.82461 16.1872 6.094 16.7052 6.45508 17.1504C6.81615 17.5956 7.32699 18 7.99414 18H9.49414V20.3926C6.02208 19.1391 3.49414 15.905 3.49414 11.9922C3.49414 7.02293 7.52048 3 12.4941 3Z" fill="#EBEBEB"/>
</svg>
