<svg width="25" height="24" viewBox="0 0 25 24" fill="none" xmlns="http://www.w3.org/2000/svg">
<path d="M12.4922 1.99219C6.98158 1.99219 2.5 6.47712 2.5 12C2.5 17.5105 6.98164 21.9922 12.4922 21.9922C18.0027 21.9922 22.5 17.5114 22.5 12C22.5 6.47529 18.0027 1.99219 12.4922 1.99219ZM12.4922 2.99219C17.4616 2.99219 21.5 7.01671 21.5 12C21.5 16.9686 17.4616 20.9922 12.4922 20.9922C7.52273 20.9922 3.5 16.9695 3.5 12C3.5 7.01688 7.5228 2.99219 12.4922 2.99219ZM8.5332 7C7.8802 7 7.49219 7.426 7.49219 8C7.49219 8.574 7.8798 9 8.4668 9C9.1068 9 9.49219 8.574 9.49219 8C9.49219 7.426 9.1062 7 8.5332 7ZM7.49219 10V16H9.49219V10H7.49219ZM11.4922 10V16H13.4922V12.6934C13.4922 11.7194 14.3729 11.5723 14.5859 11.5723C14.7859 11.5723 15.4922 11.7864 15.4922 12.6934V16H17.4922V12.6934C17.4922 10.8004 16.5452 10 15.4922 10C14.4392 10 13.7722 10.3468 13.4922 10.8398V10H11.4922Z" fill="#EBEBEB"/>
</svg>
