<svg id="visual" viewBox="0 0 900 600" width="900" height="600" xmlns="http://www.w3.org/2000/svg" xmlns:xlink="http://www.w3.org/1999/xlink" version="1.1"><path d="M0 227L18.8 234.8C37.7 242.7 75.3 258.3 112.8 266.3C150.3 274.3 187.7 274.7 225.2 267.2C262.7 259.7 300.3 244.3 337.8 245.3C375.3 246.3 412.7 263.7 450.2 270.5C487.7 277.3 525.3 273.7 562.8 266.3C600.3 259 637.7 248 675.2 247.7C712.7 247.3 750.3 257.7 787.8 260.8C825.3 264 862.7 260 881.3 258L900 256L900 0L881.3 0C862.7 0 825.3 0 787.8 0C750.3 0 712.7 0 675.2 0C637.7 0 600.3 0 562.8 0C525.3 0 487.7 0 450.2 0C412.7 0 375.3 0 337.8 0C300.3 0 262.7 0 225.2 0C187.7 0 150.3 0 112.8 0C75.3 0 37.7 0 18.8 0L0 0Z" fill="#4f46e5"></path><path d="M0 242L18.8 237C37.7 232 75.3 222 112.8 214C150.3 206 187.7 200 225.2 196C262.7 192 300.3 190 337.8 189.5C375.3 189 412.7 190 450.2 191.8C487.7 193.7 525.3 196.3 562.8 203C600.3 209.7 637.7 220.3 675.2 225.7C712.7 231 750.3 231 787.8 227.3C825.3 223.7 862.7 216.3 881.3 212.7L900 209L900 0L881.3 0C862.7 0 825.3 0 787.8 0C750.3 0 712.7 0 675.2 0C637.7 0 600.3 0 562.8 0C525.3 0 487.7 0 450.2 0C412.7 0 375.3 0 337.8 0C300.3 0 262.7 0 225.2 0C187.7 0 150.3 0 112.8 0C75.3 0 37.7 0 18.8 0L0 0Z" fill="#7f69eb"></path><path d="M0 158L18.8 160.2C37.7 162.3 75.3 166.7 112.8 167C150.3 167.3 187.7 163.7 225.2 160.7C262.7 157.7 300.3 155.3 337.8 154.3C375.3 153.3 412.7 153.7 450.2 154.3C487.7 155 525.3 156 562.8 157.3C600.3 158.7 637.7 160.3 675.2 166.7C712.7 173 750.3 184 787.8 182.5C825.3 181 862.7 167 881.3 160L900 153L900 0L881.3 0C862.7 0 825.3 0 787.8 0C750.3 0 712.7 0 675.2 0C637.7 0 600.3 0 562.8 0C525.3 0 487.7 0 450.2 0C412.7 0 375.3 0 337.8 0C300.3 0 262.7 0 225.2 0C187.7 0 150.3 0 112.8 0C75.3 0 37.7 0 18.8 0L0 0Z" fill="#a48df1"></path><path d="M0 150L18.8 147.3C37.7 144.7 75.3 139.3 112.8 139.5C150.3 139.7 187.7 145.3 225.2 145.3C262.7 145.3 300.3 139.7 337.8 138.8C375.3 138 412.7 142 450.2 138.8C487.7 135.7 525.3 125.3 562.8 126.3C600.3 127.3 637.7 139.7 675.2 144.5C712.7 149.3 750.3 146.7 787.8 144.8C825.3 143 862.7 142 881.3 141.5L900 141L900 0L881.3 0C862.7 0 825.3 0 787.8 0C750.3 0 712.7 0 675.2 0C637.7 0 600.3 0 562.8 0C525.3 0 487.7 0 450.2 0C412.7 0 375.3 0 337.8 0C300.3 0 262.7 0 225.2 0C187.7 0 150.3 0 112.8 0C75.3 0 37.7 0 18.8 0L0 0Z" fill="#c5b2f7"></path><path d="M0 102L18.8 100.3C37.7 98.7 75.3 95.3 112.8 92.2C150.3 89 187.7 86 225.2 86.2C262.7 86.3 300.3 89.7 337.8 90.2C375.3 90.7 412.7 88.3 450.2 90.2C487.7 92 525.3 98 562.8 101.8C600.3 105.7 637.7 107.3 675.2 108.2C712.7 109 750.3 109 787.8 108.3C825.3 107.7 862.7 106.3 881.3 105.7L900 105L900 0L881.3 0C862.7 0 825.3 0 787.8 0C750.3 0 712.7 0 675.2 0C637.7 0 600.3 0 562.8 0C525.3 0 487.7 0 450.2 0C412.7 0 375.3 0 337.8 0C300.3 0 262.7 0 225.2 0C187.7 0 150.3 0 112.8 0C75.3 0 37.7 0 18.8 0L0 0Z" fill="#e3d8fb"></path><path d="M0 39L18.8 40.5C37.7 42 75.3 45 112.8 45.2C150.3 45.3 187.7 42.7 225.2 40.5C262.7 38.3 300.3 36.7 337.8 36.8C375.3 37 412.7 39 450.2 42.3C487.7 45.7 525.3 50.3 562.8 54.2C600.3 58 637.7 61 675.2 62.5C712.7 64 750.3 64 787.8 62.8C825.3 61.7 862.7 59.3 881.3 58.2L900 57L900 0L881.3 0C862.7 0 825.3 0 787.8 0C750.3 0 712.7 0 675.2 0C637.7 0 600.3 0 562.8 0C525.3 0 487.7 0 450.2 0C412.7 0 375.3 0 337.8 0C300.3 0 262.7 0 225.2 0C187.7 0 150.3 0 112.8 0C75.3 0 37.7 0 18.8 0L0 0Z" fill="#ffffff"></path></svg>